<svg xmlns="http://www.w3.org/2000/svg" xmlns:xlink="http://www.w3.org/1999/xlink" viewBox="0 0 64 64"><defs><style>.cls-1{fill:url(#linear-gradient);}.cls-2{fill:url(#linear-gradient-2);}.cls-3{fill:url(#linear-gradient-3);}.cls-4{fill:url(#linear-gradient-4);}.cls-5{fill:url(#linear-gradient-5);}.cls-6{fill:url(#linear-gradient-6);}.cls-7{fill:url(#linear-gradient-7);}.cls-8{opacity:0.48;}</style><linearGradient id="linear-gradient" x1="14.51" y1="26.54" x2="49.49" y2="26.54" gradientUnits="userSpaceOnUse"><stop offset="0" stop-color="#54595d"/><stop offset="0.39" stop-color="#646664"/><stop offset="1" stop-color="#79766d"/></linearGradient><linearGradient id="linear-gradient-2" x1="52.55" y1="20.06" x2="61" y2="20.06" gradientUnits="userSpaceOnUse"><stop offset="0" stop-color="#d7d8d2"/><stop offset="0.07" stop-color="#d0d1cb"/><stop offset="0.7" stop-color="#99988d"/><stop offset="1" stop-color="#848275"/></linearGradient><linearGradient id="linear-gradient-3" x1="3" y1="20.06" x2="11.45" y2="20.06" xlink:href="#linear-gradient-2"/><linearGradient id="linear-gradient-4" x1="23.14" y1="50.22" x2="40.86" y2="50.22" xlink:href="#linear-gradient-2"/><linearGradient id="linear-gradient-5" x1="9.46" y1="20.06" x2="16.49" y2="20.06" xlink:href="#linear-gradient"/><linearGradient id="linear-gradient-6" x1="47.51" y1="20.06" x2="54.54" y2="20.06" xlink:href="#linear-gradient"/><linearGradient id="linear-gradient-7" x1="20.41" y1="43.4" x2="43.59" y2="43.4" xlink:href="#linear-gradient"/></defs><g id="Layer_41" data-name="Layer 41"><path class="cls-1" d="M48.51,26.93h-.18V13.2a1,1,0,1,0,.18-2h-33a1,1,0,0,0,0,2V26.93a1,1,0,0,0,0,2h6a1.68,1.68,0,0,1,1.68,1.68V40.88a1,1,0,0,0,1.82.54H39a1,1,0,0,0,1.82-.54V30.61a1.68,1.68,0,0,1,1.68-1.68h6A1,1,0,0,0,48.51,26.93Z"/><path class="cls-2" d="M60,11.2H53.54a1,1,0,0,0-.29,1.94V27a1,1,0,0,0,.29,1.95H60a1,1,0,0,0,1-1V12.2A1,1,0,0,0,60,11.2Z"/><path class="cls-3" d="M10.46,13.2a1,1,0,0,0,0-2H4a1,1,0,0,0-1,1V27.93a1,1,0,0,0,1,1h6.46a1,1,0,1,0-.29-2V13.2Z"/><path class="cls-4" d="M39.86,44.91a1,1,0,0,0-.91.59H25.05a1,1,0,0,0-1.91.41v8.62a1,1,0,0,0,1,1H39.86a1,1,0,0,0,1-1V45.91A1,1,0,0,0,39.86,44.91Z"/><rect class="cls-5" x="9.46" y="8.47" width="7.03" height="23.18" rx="1"/><rect class="cls-6" x="47.51" y="8.47" width="7.03" height="23.18" rx="1"/><rect class="cls-7" x="20.41" y="39.88" width="23.18" height="7.03" rx="1"/><path class="cls-8" d="M60,11.2H54.54V9.47a1,1,0,0,0-1-1h-5a1,1,0,0,0-1,1V11.2h-31V9.47a1,1,0,0,0-1-1h-5a1,1,0,0,0-1,1V11.2H4a1,1,0,0,0-1,1V27.93a1,1,0,0,0,1,1H9.46v1.72a1,1,0,0,0,1,1h5a1,1,0,0,0,1-1V28.93h5a1.68,1.68,0,0,1,1.68,1.68v9.27H21.41a1,1,0,0,0-1,1v5a1,1,0,0,0,1,1h1.73v7.62a1,1,0,0,0,1,1H39.86a1,1,0,0,0,1-1V46.91h1.73a1,1,0,0,0,1-1v-5a1,1,0,0,0-1-1H40.86V30.61a1.68,1.68,0,0,1,1.68-1.68h5v1.72a1,1,0,0,0,1,1h5a1,1,0,0,0,1-1V28.93H60a1,1,0,0,0,1-1V12.2A1,1,0,0,0,60,11.2ZM5,26.93V13.2H9.46V26.93Zm9.49,2.72h-3V10.47h3ZM38.86,53.53H25.14V46.91H38.86Zm2.73-8.62H22.41v-3H41.59Zm.95-18a3.68,3.68,0,0,0-3.68,3.68v9.27H25.14V30.61a3.68,3.68,0,0,0-3.68-3.68h-5V13.2h31V26.93Zm10,2.72h-3V10.47h3ZM59,26.93H54.54V13.2H59Z"/></g></svg>