<?xml version="1.0" encoding="utf-8"?>
<!-- Generator: Adobe Illustrator 22.1.0, SVG Export Plug-In . SVG Version: 6.00 Build 0)  -->
<svg version="1.1" id="fill_outline" xmlns="http://www.w3.org/2000/svg" xmlns:xlink="http://www.w3.org/1999/xlink" x="0px"
	 y="0px" viewBox="0 0 64 64" enable-background="new 0 0 64 64" xml:space="preserve">
<g id="cement_bag_3_">
	<g>
		<path fill="#E8B989" d="M52.711,58.561h-3.602l-10.172,1.822c-4.591,0.822-9.284,0.822-13.875,0l-10.172-1.822h-3.602v-4.086
			L9.664,42.129c-0.885-6.721-0.885-13.536,0-20.257l1.625-12.346V5.439h3.602l10.172-1.822c4.591-0.822,9.284-0.822,13.875,0
			l10.172,1.822h3.602v4.086l1.625,12.346c0.885,6.721,0.885,13.536,0,20.257l-1.625,12.346V58.561z"/>
		<path fill="#1A1A1A" d="M32,62.002c-2.377,0-4.753-0.212-7.114-0.635l-10.084-1.806h-3.513c-0.552,0-1-0.447-1-1V54.54
			L8.672,42.26c-0.896-6.808-0.896-13.712,0-20.52l1.617-12.28V5.438c0-0.553,0.448-1,1-1h3.513l10.084-1.806
			c4.72-0.846,9.507-0.846,14.228,0l10.084,1.806h3.513c0.552,0,1,0.447,1,1V9.46l1.617,12.28c0.896,6.808,0.896,13.712,0,20.52
			l-1.617,12.28v4.021c0,0.553-0.448,1-1,1h-3.513l-10.084,1.806C36.754,61.79,34.376,62.002,32,62.002z M12.289,57.562h2.602
			c0.059,0,0.118,0.005,0.176,0.016l10.171,1.821c4.486,0.805,9.036,0.805,13.522,0l10.171-1.821
			c0.058-0.011,0.117-0.016,0.176-0.016h2.602v-3.087c0-0.044,0.003-0.087,0.009-0.131l1.625-12.346
			c0.873-6.634,0.873-13.362,0-19.996L51.72,9.656c-0.006-0.044-0.009-0.087-0.009-0.131V6.438h-2.602
			c-0.059,0-0.118-0.005-0.176-0.016L38.761,4.602c-4.486-0.805-9.036-0.805-13.522,0L15.067,6.423
			c-0.058,0.011-0.117,0.016-0.176,0.016h-2.602v3.087c0,0.044-0.003,0.087-0.009,0.131l-1.625,12.346
			c-0.873,6.634-0.873,13.362,0,19.996l1.625,12.346c0.006,0.044,0.009,0.087,0.009,0.131V57.562z"/>
	</g>
	<g>
		<rect x="20" y="27" fill="#FFFFFF" width="24" height="10"/>
		<path fill="#1A1A1A" d="M44,38H20c-0.552,0-1-0.447-1-1V27c0-0.553,0.448-1,1-1h24c0.552,0,1,0.447,1,1v10
			C45,37.553,44.552,38,44,38z M21,36h22v-8H21V36z"/>
	</g>
	<rect x="18" y="22" fill="#1A1A1A" width="28" height="2"/>
	<rect x="18" y="40" fill="#1A1A1A" width="28" height="2"/>
	<rect x="23" y="31" fill="#1A1A1A" width="2" height="2"/>
	<rect x="27" y="31" fill="#1A1A1A" width="2" height="2"/>
	<rect x="31" y="31" fill="#1A1A1A" width="2" height="2"/>
	<rect x="35" y="31" fill="#1A1A1A" width="2" height="2"/>
	<rect x="39" y="31" fill="#1A1A1A" width="2" height="2"/>
	<g>
		<path fill="#FE4938" d="M38.937,3.617c-4.591-0.822-9.284-0.822-13.875,0L14.891,5.439h-3.602v4.086L9.72,21.444L46.563,4.983
			L38.937,3.617z"/>
		<path fill="#1A1A1A" d="M9.72,22.444c-0.212,0-0.422-0.067-0.598-0.198c-0.291-0.217-0.441-0.573-0.394-0.933L10.289,9.46V5.438
			c0-0.553,0.448-1,1-1h3.513l10.084-1.806c4.72-0.846,9.507-0.846,14.228,0l7.625,1.365c0.432,0.077,0.763,0.428,0.816,0.863
			s-0.184,0.855-0.585,1.034L10.127,22.357C9.997,22.416,9.858,22.444,9.72,22.444z M12.289,6.438v3.087
			c0,0.044-0.003,0.087-0.009,0.131l-1.335,10.146L43.189,5.395l-4.428-0.793l0,0c-4.486-0.805-9.036-0.805-13.522,0L15.067,6.423
			c-0.058,0.011-0.117,0.016-0.176,0.016H12.289z"/>
	</g>
	<g>
		<path fill="#FE4938" d="M19.035,59.304l6.028,1.08c4.591,0.822,9.284,0.822,13.875,0l10.172-1.822h3.602v-4.086l1.429-10.857
			L19.035,59.304z"/>
		<path fill="#1A1A1A" d="M32,62.001c-2.377,0-4.753-0.211-7.114-0.634l-6.027-1.079c-0.432-0.077-0.763-0.428-0.816-0.863
			s0.184-0.855,0.585-1.034l35.105-15.686c0.33-0.148,0.715-0.105,1.005,0.111s0.441,0.573,0.394,0.933l-1.42,10.791v4.021
			c0,0.553-0.448,1-1,1h-3.513l-10.084,1.806C36.754,61.79,34.376,62.001,32,62.001z M22.409,58.892l2.83,0.507
			c4.486,0.802,9.036,0.802,13.522,0l10.172-1.821c0.058-0.011,0.117-0.016,0.176-0.016h2.602v-3.087
			c0-0.044,0.003-0.087,0.009-0.131l1.195-9.083L22.409,58.892z"/>
	</g>
</g>
</svg>
