<?xml version="1.0" encoding="utf-8"?>
<!-- Generator: Adobe Illustrator 24.3.0, SVG Export Plug-In . SVG Version: 6.00 Build 0)  -->
<svg version="1.1" id="Layer_1" xmlns="http://www.w3.org/2000/svg" xmlns:xlink="http://www.w3.org/1999/xlink" x="0px" y="0px"
	 viewBox="0 0 64 64" enable-background="new 0 0 64 64" xml:space="preserve">
<rect x="3" y="33" fill="#F2F8FF" width="58" height="28"/>
<circle fill="#004FA8" cx="32" cy="47" r="10"/>
<path fill="#F2F8FF" d="M32,37c-0.5,0-1,0.1-1.5,0.1C35.3,37.8,39,42,39,47s-3.7,9.2-8.5,9.9c0.5,0.1,1,0.1,1.5,0.1
	c5.5,0,10-4.5,10-10C42,41.5,37.5,37,32,37z"/>
<path opacity="0.12" fill="#303030" d="M61,61H3V33l0,0c12.8,15.4,31.1,25.2,51.1,27.3L61,61z"/>
<polygon fill="#57A5FF" points="61,3 40,24 23,15 6,29 61,29 "/>
<path d="M61,2h-8v2h5.6L39.8,22.8l-16.3-8.7c-0.4-0.2-0.8-0.1-1.1,0.1l-17,14l1.3,1.5l16.5-13.6l16.4,8.7c0.4,0.2,0.9,0.1,1.2-0.2
	L60,5.4V11h2V3C62,2.4,61.6,2,61,2z"/>
<path d="M43,47c0-6.1-4.9-11-11-11s-11,4.9-11,11s4.9,11,11,11S43,53.1,43,47z M23,47c0-5,4-9,9-9s9,4,9,9s-4,9-9,9S23,52,23,47z"/>
<path d="M10,36c0,2.2-1.8,4-4,4v2c3.3,0,6-2.7,6-6H10z"/>
<path d="M58,42v-2c-2.2,0-4-1.8-4-4h-2C52,39.3,54.7,42,58,42z"/>
<path d="M6,52v2c2.2,0,4,1.8,4,4h2C12,54.7,9.3,52,6,52z"/>
<path d="M54,58c0-2.2,1.8-4,4-4v-2c-3.3,0-6,2.7-6,6H54z"/>
<path d="M33,55v-2.1c1.7-0.2,3-1.7,3-3.4c0-1.9-1.6-3.5-3.5-3.5h-1c-0.8,0-1.5-0.7-1.5-1.5s0.7-1.5,1.5-1.5h1c0.8,0,1.5,0.7,1.5,1.5
	v0.2h2v-0.2c0-1.8-1.3-3.2-3-3.4V39h-2v2.1c-1.7,0.2-3,1.7-3,3.4c0,1.9,1.6,3.5,3.5,3.5h1c0.8,0,1.5,0.7,1.5,1.5S33.3,51,32.5,51h-1
	c-0.8,0-1.5-0.7-1.5-1.5v-0.2h-2v0.2c0,1.8,1.3,3.2,3,3.4V55H33z"/>
<path d="M11,29v3H3c-0.6,0-1,0.4-1,1v28c0,0.6,0.4,1,1,1h58c0.6,0,1-0.4,1-1V33c0-0.6-0.4-1-1-1H19v2h41v26H4V34h12v-2h-3v-2h49v-2
	H12C11.4,28,11,28.4,11,29z"/>
</svg>
