<?xml version="1.0" encoding="UTF-8" standalone="no"?> <svg id="Layer_1" data-name="Layer 1" xmlns="http://www.w3.org/2000/svg" viewBox="0 0 64 64"><title>resource-management-control-business-process</title><circle cx="32" cy="54" r="8" style="fill:#bac0c0"/><path d="M33.99,54a2.49769,2.49769,0,1,0-4.49-1.5,2.44715,2.44715,0,0,0,.51,1.5A2.0144,2.0144,0,0,0,28,56.01v4.911a7.9539,7.9539,0,0,0,8,0V56.01A2.01011,2.01011,0,0,0,33.99,54Z" style="fill:#f16565"/><path d="M61,54l-.06-1A8.00289,8.00289,0,0,0,54,46.06a8.36333,8.36333,0,0,0-2,0A8.00289,8.00289,0,0,0,45.06,53a8.36333,8.36333,0,0,0,0,2A8.00289,8.00289,0,0,0,52,61.94,8.26189,8.26189,0,0,0,53,62l1-.06A8.00289,8.00289,0,0,0,60.94,55Z" style="fill:#3584be"/><circle cx="11" cy="54" r="8" style="fill:#f1d656"/><path d="M44,17.0045V12.99539l-2.61013-.86426a9.74428,9.74428,0,0,0-.72136-1.73774l1.10873-2.33458a12.0541,12.0541,0,0,0-2.836-2.836L36.60661,6.33149a9.75362,9.75362,0,0,0-1.73774-.72136L34.00461,3H29.99539l-.86426,2.61013-1.73758.7213L25.05887,5.22266a12.0516,12.0516,0,0,0-2.836,2.836l1.10867,2.33469-.72141,1.73774L20,12.99539V17.0045l2.61013.86421.72136,1.73779L22.22271,21.941a12.05246,12.05246,0,0,0,2.8361,2.8361l2.33458-1.10867a9.7604,9.7604,0,0,0,1.73774.72141L29.99539,27h4.00922l.86426-2.61013a9.75288,9.75288,0,0,0,1.73774-.72136l2.33458,1.10867a12.05019,12.05019,0,0,0,2.83594-2.836l-1.10867-2.33464a9.74568,9.74568,0,0,0,.72141-1.73779Z" style="fill:#f16565"/><circle cx="32" cy="15" r="5.5" style="fill:#bac0c0"/><path d="M51,53v2h2a.99963.99963,0,0,0,.832-.44531l2-3L54.168,50.44531,52.46484,53Z" style="fill:#f16565"/><path d="M10.1001,55h1.7998a1.00455,1.00455,0,1,1,0,2H8v2h3.8999a3.00162,3.00162,0,1,0,0-6H10.1001a1.00455,1.00455,0,1,1,0-2H14V49H10.1001a3.00162,3.00162,0,1,0,0,6Z" style="fill:#888"/><path d="M18.27832,28.69238l1.44336-1.38476a16.97483,16.97483,0,0,1,0-23.49512,1.00008,1.00008,0,0,0-.88623-1.67871l-6,1,.3291,1.97266,3.35352-.55909a18.9845,18.9845,0,0,0,1.76025,24.145Z" style="fill:#3584be"/><path d="M45,29a.98744.98744,0,0,0,.29883-.0459l6-1.87988-.59766-1.9082-2.86865.89843A18.98681,18.98681,0,0,0,45.72168,2.42773L44.27832,3.8125a16.97483,16.97483,0,0,1,0,23.49512A1,1,0,0,0,45,29Z" style="fill:#3584be"/><path d="M53,38H33V32.41406l3.293,3.293L37.707,34.293l-5-5a.99962.99962,0,0,0-1.41406,0l-5,5L27.707,35.707,31,32.41406V38H11a1,1,0,0,0-1,1v5h2V40H31v4h2V40H52v4h2V39A1,1,0,0,0,53,38Z" style="fill:#939898"/><polygon points="53 46 52 46.06 52 49 54 49 54 46.06 53 46" style="fill:#23577e"/><polygon points="52 61.94 52 59 54 59 54 61.94 54 62 53 62 52 61.94" style="fill:#23577e"/><rect x="58" y="53" width="3" height="2" style="fill:#23577e"/><polygon points="45 54 45.06 55 48 55 48 53 45.06 53 45 54" style="fill:#23577e"/></svg>