<svg xmlns="http://www.w3.org/2000/svg" viewBox="0 0 64 64"><defs><style>.cls-1{fill:#f7931e;}</style></defs><g id="Layer_65" data-name="Layer 65"><path class="cls-1" d="M13.08,6.63H6.92a1,1,0,0,0-1,1v11a1,1,0,0,0,1,1c1.53,0,4.63,0,6.16,0a1,1,0,0,0,1-1V7.63A1,1,0,0,0,13.08,6.63Zm-5.16,2H9v8.95H7.92Zm4.16,8.95H11V8.63h1.08Z"/><path class="cls-1" d="M56.68,15.29,59.78,13a1,1,0,0,0-1.2-1.6L55,14l-3.55-2.68a1.11,1.11,0,0,0-.61-.18,1,1,0,0,0-.59.18L46.72,14l-3.55-2.69a1.09,1.09,0,0,0-1.2,0L38.41,14l-3.55-2.68a1.11,1.11,0,0,0-.61-.18,1,1,0,0,0-.59.18L30.12,14,26.36,11.2a.81.81,0,0,0-.21-.1l-3.33-3,3.71-3.35a1,1,0,0,0,.08-1.41,1,1,0,0,0-1.42-.07L21.33,6.75,17.47,3.26a1,1,0,0,0-1.34,1.48l3.71,3.35-3.5,3.17A1,1,0,0,0,17,13a1,1,0,0,0,.67-.26l3.65-3.3c.13.07,4,3.7,4,3.51l3.11,2.34-3.3,2.5a1,1,0,0,0,.24,1.71l-4.07,3.43-4.1-3.46A1,1,0,1,0,15.94,21l3.84,3.25-3.62,3.07a1.05,1.05,0,0,0-.32.57,1,1,0,0,0,.32.95l3.62,3.07L16.17,35a1,1,0,0,0,0,1.53l3.61,3L16.16,42.6a1.12,1.12,0,0,0-.32.58,1,1,0,0,0,.32,1l3.62,3.07-3.61,3.06a1,1,0,0,0,0,1.52l3.61,3.06-3.84,3.25a1,1,0,1,0,1.29,1.52l4.1-3.46,4.11,3.46a1,1,0,0,0,.64.24,1,1,0,0,0,.65-1.76l-3.85-3.25,3.62-3.06a1.05,1.05,0,0,0,.32-.57,1,1,0,0,0-.32-1L22.88,47.2l3.63-3.07a1.08,1.08,0,0,0,.34-.76,1.12,1.12,0,0,0-.34-.77l-3.63-3.06,3.62-3a1.15,1.15,0,0,0,.32-.58A1,1,0,0,0,26.5,35L22.88,31.9l3.63-3.07a1,1,0,0,0,0-1.52l-3.63-3.07L26.73,21a1,1,0,0,0-.28-1.68l3.67-2.76,3.54,2.67a1,1,0,0,0,1.2,0l3.55-2.68L42,19.23a1.19,1.19,0,0,0,.6.2,1.3,1.3,0,0,0,.6-.2l3.55-2.69,3.55,2.68a1,1,0,0,0,1.2,0L55,16.54l3.56,2.69a1,1,0,0,0,.6.2,1,1,0,0,0,.6-1.8ZM24.3,51l-3,2.51-3-2.51,3-2.51Zm0-7.65-3,2.52-3-2.52,3-2.52Zm0-7.65-3,2.51-3-2.51,3-2.51Zm0-7.65-3,2.52-3-2.52,3-2.52Zm10-10.9-2.49-1.88,2.49-1.88,2.49,1.88Zm8.31,0-2.5-1.89,2.5-1.88,2.49,1.88Zm8.3,0-2.49-1.88,2.49-1.88,2.49,1.88Z"/><path d="M60,11H27.08V4a1,1,0,0,0-1-1h-9.5a1,1,0,0,0-1,1v7H4a1,1,0,0,0-1,1v6.58a1,1,0,0,0,1,1H15.58V59H4a1,1,0,0,0,0,2H32a1,1,0,0,0,0-2H27.08V19.58h18.7V33.44L35.89,41.8a1,1,0,0,0,.64,1.76h2.25V53.73a1,1,0,0,0,1,1h14a1,1,0,0,0,1-1V43.56H57a1,1,0,0,0,.65-1.76l-4.4-3.72V34.89a1,1,0,0,0-2,0v1.5l-3.5-3V19.58H60a1,1,0,0,0,1-1V12A1,1,0,0,0,60,11ZM52.78,52.73h-12V43.56h12Zm1-11.17H39.26l7.52-6.35,7.52,6.35ZM17.58,5h7.5v6h-7.5Zm7.5,8v4.58h-7.5V13ZM5,17.58V13H15.58v4.58ZM25.08,59h-7.5V19.58h7.5ZM59,17.58H27.08V13H59Z"/><path d="M37.17,59H35.5a1,1,0,0,0,0,2h1.67A1,1,0,0,0,37.17,59Z"/></g></svg>