<?xml version="1.0" encoding="UTF-8" standalone="no"?> <svg id="Layer_1" data-name="Layer 1" xmlns="http://www.w3.org/2000/svg" viewBox="0 0 64 64"><polygon points="32 21 29 25 35 25 32 21" style="fill:#8595a6"/><polygon points="16 27 16.707 31.95 20.95 27.707 16 27" style="fill:#8595a6"/><polygon points="48.778 27.222 43.828 27.929 48.071 32.172 48.778 27.222" style="fill:#8595a6"/><circle cx="9" cy="17" r="7" style="fill:#cedcf2"/><path d="M10,18H8a2,2,0,0,0-2,2v3.31732a6.933,6.933,0,0,0,6,0V20A2,2,0,0,0,10,18Z" style="fill:#759acc"/><circle cx="9" cy="16" r="2" style="fill:#759acc"/><circle cx="32" cy="9" r="7" style="fill:#cedcf2"/><path d="M33,10H31a2,2,0,0,0-2,2v3.31732a6.933,6.933,0,0,0,6,0V12A2,2,0,0,0,33,10Z" style="fill:#759acc"/><circle cx="32" cy="8" r="2" style="fill:#759acc"/><circle cx="55" cy="17" r="7" style="fill:#cedcf2"/><path d="M56,18H54a2,2,0,0,0-2,2v3.31732a6.933,6.933,0,0,0,6,0V20A2,2,0,0,0,56,18Z" style="fill:#759acc"/><circle cx="55" cy="16" r="2" style="fill:#759acc"/><rect x="32" y="50" width="12" height="12" style="fill:#ebc96a"/><polygon points="36 50 36 56 38 55 40 56 40 50 36 50" style="fill:#cca027"/><rect x="20" y="50" width="12" height="12" style="fill:#d9b962"/><polygon points="24 50 24 56 26 55 28 56 28 50 24 50" style="fill:#b38c22"/><rect x="26" y="38" width="12" height="12" style="fill:#ffdb73"/><polygon points="30 38 30 44 32 43 34 44 34 38 30 38" style="fill:#e6b42b"/><path d="M44,49H39V38a.99974.99974,0,0,0-1-1H26a.99974.99974,0,0,0-1,1V49H20a.99974.99974,0,0,0-1,1V62a.99974.99974,0,0,0,1,1H44a.99974.99974,0,0,0,1-1V50A.99974.99974,0,0,0,44,49Zm-5,2v3.38184l-.55273-.27637a1.00109,1.00109,0,0,0-.89454,0L37,54.38184V51ZM31,39h2v3.38184l-.55273-.27637a1.00109,1.00109,0,0,0-.89454,0L31,42.38184Zm-4,0h2v5a1.00009,1.00009,0,0,0,1.44727.89453L32,44.11816l1.55273.77637A1.00009,1.00009,0,0,0,35,44V39h2V49H27ZM25,51h2v3.38184l-.55273-.27637a1.00109,1.00109,0,0,0-.89454,0L25,54.38184Zm6,10H21V51h2v5a1.00009,1.00009,0,0,0,1.44727.89453L26,56.11816l1.55273.77637A1.00009,1.00009,0,0,0,29,56V51h2Zm12,0H33V51h2v5a1.00009,1.00009,0,0,0,1.44727.89453L38,56.11816l1.55273.77637A1.00009,1.00009,0,0,0,41,56V51h2Z"/><path d="M32,1a8,8,0,1,0,8,8A8.00917,8.00917,0,0,0,32,1ZM31,8a1,1,0,1,1,1,1A1.001,1.001,0,0,1,31,8Zm-1,6.65V12a1.001,1.001,0,0,1,1-1h2a1.001,1.001,0,0,1,1,1v2.65a5.88865,5.88865,0,0,1-4,0Zm6-1.19043V12a2.9934,2.9934,0,0,0-1.40137-2.52917A2.9635,2.9635,0,0,0,35,8a3,3,0,0,0-6,0,2.96355,2.96355,0,0,0,.40143,1.47083A2.99332,2.99332,0,0,0,28,12v1.45953a6,6,0,1,1,8,0Z"/><path d="M55,9a8,8,0,1,0,8,8A8.00917,8.00917,0,0,0,55,9Zm-1,7a1,1,0,1,1,1,1A1.001,1.001,0,0,1,54,16Zm-1,6.65V20a1.001,1.001,0,0,1,1-1h2a1.001,1.001,0,0,1,1,1v2.65a5.88865,5.88865,0,0,1-4,0Zm6-1.19043V20a2.9934,2.9934,0,0,0-1.40137-2.52917A2.9635,2.9635,0,0,0,58,16a3,3,0,0,0-6,0,2.96355,2.96355,0,0,0,.40143,1.47083A2.99332,2.99332,0,0,0,51,20v1.45953a6,6,0,1,1,8,0Z"/><path d="M9,25a8,8,0,1,0-8-8A8.00917,8.00917,0,0,0,9,25ZM8,16a1,1,0,1,1,1,1A1.001,1.001,0,0,1,8,16ZM7,22.65V20a1.001,1.001,0,0,1,1-1h2a1.001,1.001,0,0,1,1,1v2.65a5.88865,5.88865,0,0,1-4,0ZM9,11a5.99129,5.99129,0,0,1,4,10.45953V20a2.9934,2.9934,0,0,0-1.40137-2.52917A2.9635,2.9635,0,0,0,12,16a3,3,0,0,0-6,0,2.96355,2.96355,0,0,0,.40143,1.47083A2.99332,2.99332,0,0,0,5,20v1.45953A5.99129,5.99129,0,0,1,9,11Z"/><path d="M33,32V26h2a.99955.99955,0,0,0,.7998-1.59961l-3-4a1.03525,1.03525,0,0,0-1.5996,0l-3,4A.99955.99955,0,0,0,29,26h2v6Zm-1-9.333L33,24H31Z"/><path d="M21.89844,27.39062a.99986.99986,0,0,0-.80713-.67382l-4.94971-.707a1.00033,1.00033,0,0,0-1.13135,1.13183l.707,4.9502a.99718.99718,0,0,0,.67333.80664.98538.98538,0,0,0,.31641.05176,1.00052,1.00052,0,0,0,.707-.293l1.41468-1.41486,4.24255,4.243,1.41406-1.41406-4.24261-4.243,1.414-1.41419A.99992.99992,0,0,0,21.89844,27.39062Zm-4.71973.78809,1.6499.23535-1.41455,1.415Z"/><path d="M48.63672,26.23145l-4.94971.707a1.00009,1.00009,0,0,0-.56543,1.69726l1.414,1.41419L40.293,34.293,41.707,35.707l4.24255-4.243,1.41468,1.41486a1.00052,1.00052,0,0,0,.707.293.98538.98538,0,0,0,.31641-.05176.9972.9972,0,0,0,.67334-.80664l.707-4.9502a1.00033,1.00033,0,0,0-1.13135-1.13183Zm-1.27246,3.81933-1.41455-1.415,1.6499-.23535Z"/></svg>